<?xml version="1.0" encoding="UTF-8" standalone="no"?>
<!-- Created with Inkscape (http://www.inkscape.org/) -->

<svg
   width="297mm"
   height="210mm"
   viewBox="0 0 297 210"
   version="1.1"
   id="svg1"
   inkscape:version="1.3.2 (091e20e, 2023-11-25)"
   sodipodi:docname="boceto_programa.svg"
   xmlns:inkscape="http://www.inkscape.org/namespaces/inkscape"
   xmlns:sodipodi="http://sodipodi.sourceforge.net/DTD/sodipodi-0.dtd"
   xmlns="http://www.w3.org/2000/svg"
   xmlns:svg="http://www.w3.org/2000/svg">
  <sodipodi:namedview
     id="namedview1"
     pagecolor="#ffffff"
     bordercolor="#666666"
     borderopacity="1.0"
     inkscape:showpageshadow="2"
     inkscape:pageopacity="0.0"
     inkscape:pagecheckerboard="0"
     inkscape:deskcolor="#d1d1d1"
     inkscape:document-units="mm"
     inkscape:zoom="0.54686786"
     inkscape:cx="581.4933"
     inkscape:cy="469.03469"
     inkscape:window-width="1440"
     inkscape:window-height="900"
     inkscape:window-x="0"
     inkscape:window-y="0"
     inkscape:window-maximized="0"
     inkscape:current-layer="layer1" />
  <defs
     id="defs1" />
  <g
     inkscape:label="Capa 1"
     inkscape:groupmode="layer"
     id="layer1">
    <rect
       style="opacity:1;fill:none;stroke:#000000;stroke-width:4.11682;stroke-linecap:round;stroke-linejoin:round"
       id="rect1"
       width="278.75711"
       height="188.59908"
       x="10.271526"
       y="12.111489"
       rx="6.9247422"
       ry="7.6777549"
       sodipodi:insensitive="true" />
    <text
       xml:space="preserve"
       style="font-size:10.8284px;line-height:1.25;font-family:calibri;-inkscape-font-specification:calibri;stroke-width:1.01516"
       x="19.357101"
       y="38.781693"
       id="text1"><tspan
         sodipodi:role="line"
         id="tspan1"
         style="stroke-width:1.01516"
         x="19.357101"
         y="38.781693">Miembros</tspan></text>
    <text
       xml:space="preserve"
       style="font-size:10.8284px;line-height:1.25;font-family:calibri;-inkscape-font-specification:calibri;stroke-width:1.01516"
       x="73.928719"
       y="38.805485"
       id="text2"><tspan
         sodipodi:role="line"
         style="stroke-width:1.01516"
         x="73.928719"
         y="38.805485"
         id="tspan55">Grupos</tspan></text>
    <rect
       style="opacity:1;fill:none;stroke:#000000;stroke-width:0.745569;stroke-linecap:round;stroke-linejoin:round;stroke-dasharray:none"
       id="rect3"
       width="49.960899"
       height="14.260792"
       x="17.119991"
       y="28.773071" />
    <rect
       style="opacity:1;fill:none;stroke:#000000;stroke-width:0.745569;stroke-linecap:round;stroke-linejoin:round;stroke-dasharray:none"
       id="rect4"
       width="49.960899"
       height="14.260792"
       x="66.861656"
       y="28.773071" />
    <rect
       style="opacity:1;fill:#cccccc;stroke:none;stroke-width:0.856671;stroke-linecap:round;stroke-linejoin:round;stroke-dasharray:none"
       id="rect53"
       width="122.86949"
       height="11.711778"
       x="17.172993"
       y="51.724266" />
    <rect
       style="opacity:1;fill:none;stroke:#000000;stroke-width:0.912915;stroke-linecap:round;stroke-linejoin:round;stroke-dasharray:none"
       id="rect6"
       width="262.48807"
       height="152.09045"
       x="17.203665"
       y="43.863106" />
    <text
       xml:space="preserve"
       style="font-size:7.05556px;line-height:1.25;font-family:calibri;-inkscape-font-specification:calibri;stroke-width:0.688429"
       x="62.59293"
       y="59.761383"
       id="text7"><tspan
         sodipodi:role="line"
         id="tspan7"
         style="font-size:7.05556px;stroke-width:0.688429"
         x="62.59293"
         y="59.761383">Pepito de los palotes</tspan></text>
    <text
       xml:space="preserve"
       style="font-size:7.05555556px;line-height:1.25;font-family:calibri;-inkscape-font-specification:calibri;stroke-width:0.264583"
       x="21.10836"
       y="59.572483"
       id="text8"><tspan
         sodipodi:role="line"
         id="tspan8"
         style="stroke-width:0.264583;font-size:7.05555556px"
         x="21.10836"
         y="59.572483">37333542D</tspan></text>
    <path
       id="rect8"
       style="color:#000000;fill:#000000;stroke-width:0.101726;stroke-linecap:round;stroke-linejoin:round;-inkscape-stroke:none"
       d="m 131.85871,54.97565 a 0.04578096,0.04578096 0 0 0 -0.0646,9.9e-5 l -3.13796,3.137958 a 0.04578096,0.04578096 0 0 0 -0.0115,0.03671 l -0.78364,2.260533 a 0.03846837,0.04578096 45 0 0 0.0472,0.04724 l 2.26053,-0.783642 a 0.04578096,0.04578096 0 0 0 0.0367,-0.01154 l 3.13796,-3.137958 a 0.04578096,0.04578096 0 0 0 3e-5,-0.06466 z m -0.0323,0.09725 0.20834,0.208342 -3.07305,3.073057 -0.20835,-0.208342 z m 0.2273,0.2273 0.23715,0.237149 -3.07306,3.073057 -0.23715,-0.237149 z m 0.25626,0.256255 0.237,0.237008 -3.07305,3.073057 -0.23701,-0.237008 z m 0.25611,0.256114 0.237,0.237001 -3.07306,3.073057 -0.237,-0.237001 z m 0.25611,0.256107 0.237,0.237001 -3.07306,3.073057 -0.237,-0.237001 z m 0.25611,0.256114 0.1679,0.167896 -3.07306,3.073057 -0.1679,-0.167895 z m -4.37513,1.900486 1.39061,1.390611 -1.51417,0.524824 c 0.001,-0.0026 0.002,-0.0062 0.002,-0.01068 -2e-5,-0.01468 -0.004,-0.01393 -0.005,-0.01626 -0.002,-0.0025 -0.003,-0.0042 -0.005,-0.0066 -0.003,-0.004 -0.007,-0.0086 -0.012,-0.01414 -0.01,-0.01105 -0.0238,-0.02574 -0.0407,-0.04327 l 3e-5,-3.6e-5 c -0.0341,-0.03508 -0.0807,-0.08156 -0.13208,-0.131229 l -0.18615,-0.180065 a 0.02678712,0.02678712 0 0 0 -0.0202,-0.0068 z m -0.28102,1.802429 c 0.0221,0.022 0.0422,0.04224 0.0589,0.05947 0.0136,0.014 0.0232,0.02441 0.0319,0.03387 -0.0139,0.0054 -0.0297,0.01231 -0.0518,0.02068 -0.0515,0.01958 -0.12313,0.04507 -0.20177,0.07166 l -0.23503,0.07943 0.0827,-0.237229 0.087,-0.249376 0.15602,0.150932 c 0.0255,0.02467 0.0498,0.04859 0.072,0.07058 z m -0.05,-0.0432 c -0.0414,-0.04101 -0.0869,-0.08198 -0.11395,-0.101788 l -0.0655,-0.04808 -0.0759,0.222693 -0.0759,0.222649 0.22913,-0.08058 0.22912,-0.08059 -0.0877,-0.09407 c -0.0121,-0.01294 -0.0254,-0.0266 -0.0393,-0.04031 z" />
    <text
       xml:space="preserve"
       style="font-size:7.05556px;line-height:1.25;font-family:calibri;-inkscape-font-specification:calibri;stroke-width:0.688429"
       x="62.59293"
       y="70.344711"
       id="text18"><tspan
         sodipodi:role="line"
         id="tspan18"
         style="font-size:7.05556px;stroke-width:0.688429"
         x="62.59293"
         y="70.344711">Pepito de los palotes</tspan></text>
    <text
       xml:space="preserve"
       style="font-size:7.05556px;line-height:1.25;font-family:calibri;-inkscape-font-specification:calibri;stroke-width:0.264583"
       x="21.10836"
       y="70.155815"
       id="text19"><tspan
         sodipodi:role="line"
         id="tspan19"
         style="font-size:7.05556px;stroke-width:0.264583"
         x="21.10836"
         y="70.155815">37333542D</tspan></text>
    <path
       id="path19"
       style="color:#000000;fill:#000000;stroke-width:0.101726;stroke-linecap:round;stroke-linejoin:round;-inkscape-stroke:none"
       d="m 131.85871,65.558984 a 0.04578096,0.04578096 0 0 0 -0.0646,9.9e-5 l -3.13796,3.137958 a 0.04578096,0.04578096 0 0 0 -0.0115,0.03671 l -0.78364,2.260533 a 0.03846837,0.04578096 45 0 0 0.0472,0.04724 l 2.26053,-0.783642 a 0.04578096,0.04578096 0 0 0 0.0367,-0.01154 l 3.13796,-3.137958 a 0.04578096,0.04578096 0 0 0 3e-5,-0.06466 z m -0.0323,0.09725 0.20834,0.208342 -3.07305,3.073057 -0.20835,-0.208342 z m 0.2273,0.2273 0.23715,0.237149 -3.07306,3.073057 -0.23715,-0.237149 z m 0.25626,0.256255 0.237,0.237008 -3.07305,3.073057 -0.23701,-0.237008 z m 0.25611,0.256114 0.237,0.237001 -3.07306,3.073057 -0.237,-0.237001 z m 0.25611,0.256107 0.237,0.237001 -3.07306,3.073057 -0.237,-0.237001 z m 0.25611,0.256114 0.1679,0.167896 -3.07306,3.073057 -0.1679,-0.167895 z m -4.37513,1.900486 1.39061,1.390611 -1.51417,0.524824 c 0.001,-0.0026 0.002,-0.0062 0.002,-0.01068 -2e-5,-0.01468 -0.004,-0.01393 -0.005,-0.01626 -0.002,-0.0025 -0.003,-0.0042 -0.005,-0.0066 -0.003,-0.004 -0.007,-0.0086 -0.012,-0.01414 -0.01,-0.01105 -0.0238,-0.02574 -0.0407,-0.04327 l 3e-5,-3.6e-5 c -0.0341,-0.03508 -0.0807,-0.08156 -0.13208,-0.131229 l -0.18615,-0.180065 a 0.02678712,0.02678712 0 0 0 -0.0202,-0.0068 z m -0.28102,1.802429 c 0.0221,0.022 0.0422,0.04224 0.0589,0.05947 0.0136,0.014 0.0232,0.02441 0.0319,0.03387 -0.0139,0.0054 -0.0297,0.01231 -0.0518,0.02068 -0.0515,0.01958 -0.12313,0.04507 -0.20177,0.07166 l -0.23503,0.07943 0.0827,-0.237229 0.087,-0.249376 0.15602,0.150932 c 0.0255,0.02467 0.0498,0.04859 0.072,0.07058 z m -0.05,-0.0432 c -0.0414,-0.04101 -0.0869,-0.08198 -0.11395,-0.101788 l -0.0655,-0.04808 -0.0759,0.222693 -0.0759,0.222649 0.22913,-0.08058 0.22912,-0.08059 -0.0877,-0.09407 c -0.0121,-0.01294 -0.0254,-0.0266 -0.0393,-0.04031 z" />
    <text
       xml:space="preserve"
       style="font-size:7.05556px;line-height:1.25;font-family:calibri;-inkscape-font-specification:calibri;stroke-width:0.688429"
       x="62.59293"
       y="80.92804"
       id="text20"><tspan
         sodipodi:role="line"
         id="tspan20"
         style="font-size:7.05556px;stroke-width:0.688429"
         x="62.59293"
         y="80.92804">Pepito de los palotes</tspan></text>
    <text
       xml:space="preserve"
       style="font-size:7.05556px;line-height:1.25;font-family:calibri;-inkscape-font-specification:calibri;stroke-width:0.264583"
       x="21.10836"
       y="80.739143"
       id="text21"><tspan
         sodipodi:role="line"
         id="tspan21"
         style="font-size:7.05556px;stroke-width:0.264583"
         x="21.10836"
         y="80.739143">37333542D</tspan></text>
    <path
       id="path21"
       style="color:#000000;fill:#000000;stroke-width:0.101726;stroke-linecap:round;stroke-linejoin:round;-inkscape-stroke:none"
       d="m 131.85871,76.142318 a 0.04578096,0.04578096 0 0 0 -0.0646,9.9e-5 l -3.13796,3.137958 a 0.04578096,0.04578096 0 0 0 -0.0115,0.03671 l -0.78364,2.260533 a 0.03846837,0.04578096 45 0 0 0.0472,0.04724 l 2.26053,-0.783642 a 0.04578096,0.04578096 0 0 0 0.0367,-0.01154 l 3.13796,-3.137958 a 0.04578096,0.04578096 0 0 0 3e-5,-0.06466 z m -0.0323,0.09725 0.20834,0.208342 -3.07305,3.073057 -0.20835,-0.208342 z m 0.2273,0.2273 0.23715,0.237149 -3.07306,3.073057 -0.23715,-0.237149 z m 0.25626,0.256255 0.237,0.237008 -3.07305,3.073057 -0.23701,-0.237008 z m 0.25611,0.256114 0.237,0.237001 -3.07306,3.073057 -0.237,-0.237001 z m 0.25611,0.256107 0.237,0.237001 -3.07306,3.073057 -0.237,-0.237001 z m 0.25611,0.256114 0.1679,0.167896 -3.07306,3.073057 -0.1679,-0.167895 z m -4.37513,1.900486 1.39061,1.390611 -1.51417,0.524824 c 0.001,-0.0026 0.002,-0.0062 0.002,-0.01068 -2e-5,-0.01468 -0.004,-0.01393 -0.005,-0.01626 -0.002,-0.0025 -0.003,-0.0042 -0.005,-0.0066 -0.003,-0.004 -0.007,-0.0086 -0.012,-0.01414 -0.01,-0.01105 -0.0238,-0.02574 -0.0407,-0.04327 l 3e-5,-3.6e-5 c -0.0341,-0.03508 -0.0807,-0.08156 -0.13208,-0.131229 l -0.18615,-0.180065 a 0.02678712,0.02678712 0 0 0 -0.0202,-0.0068 z m -0.28102,1.802429 c 0.0221,0.022 0.0422,0.04224 0.0589,0.05947 0.0136,0.014 0.0232,0.02441 0.0319,0.03387 -0.0139,0.0054 -0.0297,0.01231 -0.0518,0.02068 -0.0515,0.01958 -0.12313,0.04507 -0.20177,0.07166 l -0.23503,0.07943 0.0827,-0.237229 0.087,-0.249376 0.15602,0.150932 c 0.0255,0.02467 0.0498,0.04859 0.072,0.07058 z m -0.05,-0.0432 c -0.0414,-0.04101 -0.0869,-0.08198 -0.11395,-0.101788 l -0.0655,-0.04808 -0.0759,0.222693 -0.0759,0.222649 0.22913,-0.08058 0.22912,-0.08059 -0.0877,-0.09407 c -0.0121,-0.01294 -0.0254,-0.0266 -0.0393,-0.04031 z" />
    <text
       xml:space="preserve"
       style="font-size:7.05556px;line-height:1.25;font-family:calibri;-inkscape-font-specification:calibri;stroke-width:0.688429"
       x="62.59293"
       y="91.511368"
       id="text22"><tspan
         sodipodi:role="line"
         id="tspan22"
         style="font-size:7.05556px;stroke-width:0.688429"
         x="62.59293"
         y="91.511368">Pepito de los palotes</tspan></text>
    <text
       xml:space="preserve"
       style="font-size:7.05556px;line-height:1.25;font-family:calibri;-inkscape-font-specification:calibri;stroke-width:0.264583"
       x="21.10836"
       y="91.322472"
       id="text23"><tspan
         sodipodi:role="line"
         id="tspan23"
         style="font-size:7.05556px;stroke-width:0.264583"
         x="21.10836"
         y="91.322472">37333542D</tspan></text>
    <path
       id="path23"
       style="color:#000000;fill:#000000;stroke-width:0.101726;stroke-linecap:round;stroke-linejoin:round;-inkscape-stroke:none"
       d="m 131.85871,86.725652 a 0.04578096,0.04578096 0 0 0 -0.0646,9.9e-5 l -3.13796,3.137958 a 0.04578096,0.04578096 0 0 0 -0.0115,0.03671 l -0.78364,2.260533 a 0.03846837,0.04578096 45 0 0 0.0472,0.04724 l 2.26053,-0.783642 a 0.04578096,0.04578096 0 0 0 0.0367,-0.01154 l 3.13796,-3.137958 a 0.04578096,0.04578096 0 0 0 3e-5,-0.06466 z m -0.0323,0.09725 0.20834,0.208342 -3.07305,3.073057 -0.20835,-0.208342 z m 0.2273,0.2273 0.23715,0.237149 -3.07306,3.073057 -0.23715,-0.237149 z m 0.25626,0.256255 0.237,0.237008 -3.07305,3.073057 -0.23701,-0.237008 z m 0.25611,0.256114 0.237,0.237001 -3.07306,3.073057 -0.237,-0.237001 z m 0.25611,0.256107 0.237,0.237001 -3.07306,3.073057 -0.237,-0.237001 z m 0.25611,0.256114 0.1679,0.167896 -3.07306,3.073057 -0.1679,-0.167895 z m -4.37513,1.900486 1.39061,1.390611 -1.51417,0.524824 c 0.001,-0.0026 0.002,-0.0062 0.002,-0.01068 -2e-5,-0.01468 -0.004,-0.01393 -0.005,-0.01626 -0.002,-0.0025 -0.003,-0.0042 -0.005,-0.0066 -0.003,-0.004 -0.007,-0.0086 -0.012,-0.01414 -0.01,-0.01105 -0.0238,-0.02574 -0.0407,-0.04327 l 3e-5,-3.6e-5 c -0.0341,-0.03508 -0.0807,-0.08156 -0.13208,-0.131229 l -0.18615,-0.180065 a 0.02678712,0.02678712 0 0 0 -0.0202,-0.0068 z m -0.28102,1.802429 c 0.0221,0.022 0.0422,0.04224 0.0589,0.05947 0.0136,0.014 0.0232,0.02441 0.0319,0.03387 -0.0139,0.0054 -0.0297,0.01231 -0.0518,0.02068 -0.0515,0.01958 -0.12313,0.04507 -0.20177,0.07166 l -0.23503,0.07943 0.0827,-0.237229 0.087,-0.249376 0.15602,0.150932 c 0.0255,0.02467 0.0498,0.04859 0.072,0.07058 z m -0.05,-0.0432 c -0.0414,-0.04101 -0.0869,-0.08198 -0.11395,-0.101788 l -0.0655,-0.04808 -0.0759,0.222693 -0.0759,0.222649 0.22913,-0.08058 0.22912,-0.08059 -0.0877,-0.09407 c -0.0121,-0.01294 -0.0254,-0.0266 -0.0393,-0.04031 z" />
    <text
       xml:space="preserve"
       style="font-size:7.05556px;line-height:1.25;font-family:calibri;-inkscape-font-specification:calibri;stroke-width:0.688429"
       x="62.59293"
       y="91.511368"
       id="text24"><tspan
         sodipodi:role="line"
         id="tspan24"
         style="font-size:7.05556px;stroke-width:0.688429"
         x="62.59293"
         y="91.511368">Pepito de los palotes</tspan></text>
    <text
       xml:space="preserve"
       style="font-size:7.05556px;line-height:1.25;font-family:calibri;-inkscape-font-specification:calibri;stroke-width:0.264583"
       x="21.10836"
       y="91.322472"
       id="text25"><tspan
         sodipodi:role="line"
         id="tspan25"
         style="font-size:7.05556px;stroke-width:0.264583"
         x="21.10836"
         y="91.322472">37333542D</tspan></text>
    <path
       id="path25"
       style="color:#000000;fill:#000000;stroke-width:0.101726;stroke-linecap:round;stroke-linejoin:round;-inkscape-stroke:none"
       d="m 131.85871,86.725652 a 0.04578096,0.04578096 0 0 0 -0.0646,9.9e-5 l -3.13796,3.137958 a 0.04578096,0.04578096 0 0 0 -0.0115,0.03671 l -0.78364,2.260533 a 0.03846837,0.04578096 45 0 0 0.0472,0.04724 l 2.26053,-0.783642 a 0.04578096,0.04578096 0 0 0 0.0367,-0.01154 l 3.13796,-3.137958 a 0.04578096,0.04578096 0 0 0 3e-5,-0.06466 z m -0.0323,0.09725 0.20834,0.208342 -3.07305,3.073057 -0.20835,-0.208342 z m 0.2273,0.2273 0.23715,0.237149 -3.07306,3.073057 -0.23715,-0.237149 z m 0.25626,0.256255 0.237,0.237008 -3.07305,3.073057 -0.23701,-0.237008 z m 0.25611,0.256114 0.237,0.237001 -3.07306,3.073057 -0.237,-0.237001 z m 0.25611,0.256107 0.237,0.237001 -3.07306,3.073057 -0.237,-0.237001 z m 0.25611,0.256114 0.1679,0.167896 -3.07306,3.073057 -0.1679,-0.167895 z m -4.37513,1.900486 1.39061,1.390611 -1.51417,0.524824 c 0.001,-0.0026 0.002,-0.0062 0.002,-0.01068 -2e-5,-0.01468 -0.004,-0.01393 -0.005,-0.01626 -0.002,-0.0025 -0.003,-0.0042 -0.005,-0.0066 -0.003,-0.004 -0.007,-0.0086 -0.012,-0.01414 -0.01,-0.01105 -0.0238,-0.02574 -0.0407,-0.04327 l 3e-5,-3.6e-5 c -0.0341,-0.03508 -0.0807,-0.08156 -0.13208,-0.131229 l -0.18615,-0.180065 a 0.02678712,0.02678712 0 0 0 -0.0202,-0.0068 z m -0.28102,1.802429 c 0.0221,0.022 0.0422,0.04224 0.0589,0.05947 0.0136,0.014 0.0232,0.02441 0.0319,0.03387 -0.0139,0.0054 -0.0297,0.01231 -0.0518,0.02068 -0.0515,0.01958 -0.12313,0.04507 -0.20177,0.07166 l -0.23503,0.07943 0.0827,-0.237229 0.087,-0.249376 0.15602,0.150932 c 0.0255,0.02467 0.0498,0.04859 0.072,0.07058 z m -0.05,-0.0432 c -0.0414,-0.04101 -0.0869,-0.08198 -0.11395,-0.101788 l -0.0655,-0.04808 -0.0759,0.222693 -0.0759,0.222649 0.22913,-0.08058 0.22912,-0.08059 -0.0877,-0.09407 c -0.0121,-0.01294 -0.0254,-0.0266 -0.0393,-0.04031 z" />
    <text
       xml:space="preserve"
       style="font-size:7.05556px;line-height:1.25;font-family:calibri;-inkscape-font-specification:calibri;stroke-width:0.688429"
       x="62.59293"
       y="102.0947"
       id="text26"><tspan
         sodipodi:role="line"
         id="tspan26"
         style="font-size:7.05556px;stroke-width:0.688429"
         x="62.59293"
         y="102.0947">Pepito de los palotes</tspan></text>
    <text
       xml:space="preserve"
       style="font-size:7.05556px;line-height:1.25;font-family:calibri;-inkscape-font-specification:calibri;stroke-width:0.264583"
       x="21.10836"
       y="101.9058"
       id="text27"><tspan
         sodipodi:role="line"
         id="tspan27"
         style="font-size:7.05556px;stroke-width:0.264583"
         x="21.10836"
         y="101.9058">37333542D</tspan></text>
    <path
       id="path27"
       style="color:#000000;fill:#000000;stroke-width:0.101726;stroke-linecap:round;stroke-linejoin:round;-inkscape-stroke:none"
       d="m 131.85871,97.308986 a 0.04578096,0.04578096 0 0 0 -0.0646,9.9e-5 l -3.13796,3.137955 a 0.04578096,0.04578096 0 0 0 -0.0115,0.0367 l -0.78364,2.26054 a 0.03846837,0.04578096 45 0 0 0.0472,0.0472 l 2.26053,-0.78365 a 0.04578096,0.04578096 0 0 0 0.0367,-0.0115 l 3.13796,-3.137954 a 0.04578096,0.04578096 0 0 0 3e-5,-0.06466 z m -0.0323,0.09725 0.20834,0.208342 -3.07305,3.073052 -0.20835,-0.20834 z m 0.2273,0.2273 0.23715,0.237149 -3.07306,3.073055 -0.23715,-0.23715 z m 0.25626,0.256255 0.237,0.237008 -3.07305,3.073061 -0.23701,-0.23701 z m 0.25611,0.256114 0.237,0.237001 -3.07306,3.073054 -0.237,-0.237 z m 0.25611,0.256107 0.237,0.237001 -3.07306,3.073057 -0.237,-0.237 z m 0.25611,0.256114 0.1679,0.167896 -3.07306,3.073058 -0.1679,-0.1679 z m -4.37513,1.900484 1.39061,1.39061 -1.51417,0.52483 c 0.001,-0.003 0.002,-0.006 0.002,-0.0107 -2e-5,-0.0147 -0.004,-0.0139 -0.005,-0.0163 -0.002,-0.002 -0.003,-0.004 -0.005,-0.007 -0.003,-0.004 -0.007,-0.009 -0.012,-0.0141 -0.01,-0.0111 -0.0238,-0.0257 -0.0407,-0.0433 l 3e-5,-4e-5 c -0.0341,-0.0351 -0.0807,-0.0816 -0.13208,-0.13123 l -0.18615,-0.18006 a 0.02678712,0.02678712 0 0 0 -0.0202,-0.007 z m -0.28102,1.80243 c 0.0221,0.022 0.0422,0.0422 0.0589,0.0595 0.0136,0.014 0.0232,0.0244 0.0319,0.0339 -0.0139,0.005 -0.0297,0.0123 -0.0518,0.0207 -0.0515,0.0196 -0.12313,0.0451 -0.20177,0.0717 l -0.23503,0.0794 0.0827,-0.23723 0.087,-0.24937 0.15602,0.15093 c 0.0255,0.0247 0.0498,0.0486 0.072,0.0706 z m -0.05,-0.0432 c -0.0414,-0.041 -0.0869,-0.082 -0.11395,-0.10179 l -0.0655,-0.0481 -0.0759,0.2227 -0.0759,0.22264 0.22913,-0.0806 0.22912,-0.0806 -0.0877,-0.0941 c -0.0121,-0.0129 -0.0254,-0.0266 -0.0393,-0.0403 z" />
    <text
       xml:space="preserve"
       style="font-size:7.05556px;line-height:1.25;font-family:calibri;-inkscape-font-specification:calibri;stroke-width:0.688429"
       x="62.59293"
       y="102.0947"
       id="text28"><tspan
         sodipodi:role="line"
         id="tspan28"
         style="font-size:7.05556px;stroke-width:0.688429"
         x="62.59293"
         y="102.0947">Pepito de los palotes</tspan></text>
    <text
       xml:space="preserve"
       style="font-size:7.05556px;line-height:1.25;font-family:calibri;-inkscape-font-specification:calibri;stroke-width:0.264583"
       x="21.10836"
       y="101.9058"
       id="text29"><tspan
         sodipodi:role="line"
         id="tspan29"
         style="font-size:7.05556px;stroke-width:0.264583"
         x="21.10836"
         y="101.9058">37333542D</tspan></text>
    <path
       id="path29"
       style="color:#000000;fill:#000000;stroke-width:0.101726;stroke-linecap:round;stroke-linejoin:round;-inkscape-stroke:none"
       d="m 131.85871,97.308986 a 0.04578096,0.04578096 0 0 0 -0.0646,9.9e-5 l -3.13796,3.137955 a 0.04578096,0.04578096 0 0 0 -0.0115,0.0367 l -0.78364,2.26054 a 0.03846837,0.04578096 45 0 0 0.0472,0.0472 l 2.26053,-0.78365 a 0.04578096,0.04578096 0 0 0 0.0367,-0.0115 l 3.13796,-3.137954 a 0.04578096,0.04578096 0 0 0 3e-5,-0.06466 z m -0.0323,0.09725 0.20834,0.208342 -3.07305,3.073052 -0.20835,-0.20834 z m 0.2273,0.2273 0.23715,0.237149 -3.07306,3.073055 -0.23715,-0.23715 z m 0.25626,0.256255 0.237,0.237008 -3.07305,3.073061 -0.23701,-0.23701 z m 0.25611,0.256114 0.237,0.237001 -3.07306,3.073054 -0.237,-0.237 z m 0.25611,0.256107 0.237,0.237001 -3.07306,3.073057 -0.237,-0.237 z m 0.25611,0.256114 0.1679,0.167896 -3.07306,3.073058 -0.1679,-0.1679 z m -4.37513,1.900484 1.39061,1.39061 -1.51417,0.52483 c 0.001,-0.003 0.002,-0.006 0.002,-0.0107 -2e-5,-0.0147 -0.004,-0.0139 -0.005,-0.0163 -0.002,-0.002 -0.003,-0.004 -0.005,-0.007 -0.003,-0.004 -0.007,-0.009 -0.012,-0.0141 -0.01,-0.0111 -0.0238,-0.0257 -0.0407,-0.0433 l 3e-5,-4e-5 c -0.0341,-0.0351 -0.0807,-0.0816 -0.13208,-0.13123 l -0.18615,-0.18006 a 0.02678712,0.02678712 0 0 0 -0.0202,-0.007 z m -0.28102,1.80243 c 0.0221,0.022 0.0422,0.0422 0.0589,0.0595 0.0136,0.014 0.0232,0.0244 0.0319,0.0339 -0.0139,0.005 -0.0297,0.0123 -0.0518,0.0207 -0.0515,0.0196 -0.12313,0.0451 -0.20177,0.0717 l -0.23503,0.0794 0.0827,-0.23723 0.087,-0.24937 0.15602,0.15093 c 0.0255,0.0247 0.0498,0.0486 0.072,0.0706 z m -0.05,-0.0432 c -0.0414,-0.041 -0.0869,-0.082 -0.11395,-0.10179 l -0.0655,-0.0481 -0.0759,0.2227 -0.0759,0.22264 0.22913,-0.0806 0.22912,-0.0806 -0.0877,-0.0941 c -0.0121,-0.0129 -0.0254,-0.0266 -0.0393,-0.0403 z" />
    <text
       xml:space="preserve"
       style="font-size:7.05556px;line-height:1.25;font-family:calibri;-inkscape-font-specification:calibri;stroke-width:0.688429"
       x="62.59293"
       y="112.67803"
       id="text30"><tspan
         sodipodi:role="line"
         id="tspan30"
         style="font-size:7.05556px;stroke-width:0.688429"
         x="62.59293"
         y="112.67803">Pepito de los palotes</tspan></text>
    <text
       xml:space="preserve"
       style="font-size:7.05556px;line-height:1.25;font-family:calibri;-inkscape-font-specification:calibri;stroke-width:0.264583"
       x="21.10836"
       y="112.48912"
       id="text31"><tspan
         sodipodi:role="line"
         id="tspan31"
         style="font-size:7.05556px;stroke-width:0.264583"
         x="21.10836"
         y="112.48912">37333542D</tspan></text>
    <path
       id="path31"
       style="color:#000000;fill:#000000;stroke-width:0.101726;stroke-linecap:round;stroke-linejoin:round;-inkscape-stroke:none"
       d="m 131.85871,107.89232 a 0.04578096,0.04578096 0 0 0 -0.0646,1e-4 l -3.13796,3.13796 a 0.04578096,0.04578096 0 0 0 -0.0115,0.0367 l -0.78364,2.26054 a 0.03846837,0.04578096 45 0 0 0.0472,0.0472 l 2.26053,-0.78365 a 0.04578096,0.04578096 0 0 0 0.0367,-0.0115 l 3.13796,-3.13796 a 0.04578096,0.04578096 0 0 0 3e-5,-0.0647 z m -0.0323,0.0973 0.20834,0.20834 -3.07305,3.07306 -0.20835,-0.20834 z m 0.2273,0.2273 0.23715,0.23715 -3.07306,3.07306 -0.23715,-0.23715 z m 0.25626,0.25626 0.237,0.23701 -3.07305,3.07306 -0.23701,-0.23701 z m 0.25611,0.25611 0.237,0.237 -3.07306,3.07306 -0.237,-0.237 z m 0.25611,0.25611 0.237,0.237 -3.07306,3.07306 -0.237,-0.237 z m 0.25611,0.25611 0.1679,0.1679 -3.07306,3.07306 -0.1679,-0.1679 z m -4.37513,1.90049 1.39061,1.39061 -1.51417,0.52483 c 0.001,-0.003 0.002,-0.006 0.002,-0.0107 -2e-5,-0.0147 -0.004,-0.0139 -0.005,-0.0163 -0.002,-0.002 -0.003,-0.004 -0.005,-0.007 -0.003,-0.004 -0.007,-0.009 -0.012,-0.0141 -0.01,-0.0111 -0.0238,-0.0257 -0.0407,-0.0433 l 3e-5,-4e-5 c -0.0341,-0.0351 -0.0807,-0.0816 -0.13208,-0.13123 l -0.18615,-0.18006 a 0.02678712,0.02678712 0 0 0 -0.0202,-0.007 z m -0.28102,1.80243 c 0.0221,0.022 0.0422,0.0422 0.0589,0.0595 0.0136,0.014 0.0232,0.0244 0.0319,0.0339 -0.0139,0.005 -0.0297,0.0123 -0.0518,0.0207 -0.0515,0.0196 -0.12313,0.0451 -0.20177,0.0717 l -0.23503,0.0794 0.0827,-0.23723 0.087,-0.24937 0.15602,0.15093 c 0.0255,0.0247 0.0498,0.0486 0.072,0.0706 z m -0.05,-0.0432 c -0.0414,-0.041 -0.0869,-0.082 -0.11395,-0.10179 l -0.0655,-0.0481 -0.0759,0.2227 -0.0759,0.22264 0.22913,-0.0806 0.22912,-0.0806 -0.0877,-0.0941 c -0.0121,-0.0129 -0.0254,-0.0266 -0.0393,-0.0403 z" />
    <text
       xml:space="preserve"
       style="font-size:7.05556px;line-height:1.25;font-family:calibri;-inkscape-font-specification:calibri;stroke-width:0.688429"
       x="62.59293"
       y="112.67803"
       id="text32"><tspan
         sodipodi:role="line"
         id="tspan32"
         style="font-size:7.05556px;stroke-width:0.688429"
         x="62.59293"
         y="112.67803">Pepito de los palotes</tspan></text>
    <text
       xml:space="preserve"
       style="font-size:7.05556px;line-height:1.25;font-family:calibri;-inkscape-font-specification:calibri;stroke-width:0.264583"
       x="21.10836"
       y="112.48912"
       id="text33"><tspan
         sodipodi:role="line"
         id="tspan33"
         style="font-size:7.05556px;stroke-width:0.264583"
         x="21.10836"
         y="112.48912">37333542D</tspan></text>
    <path
       id="path33"
       style="color:#000000;fill:#000000;stroke-width:0.101726;stroke-linecap:round;stroke-linejoin:round;-inkscape-stroke:none"
       d="m 131.85871,107.89232 a 0.04578096,0.04578096 0 0 0 -0.0646,1e-4 l -3.13796,3.13796 a 0.04578096,0.04578096 0 0 0 -0.0115,0.0367 l -0.78364,2.26054 a 0.03846837,0.04578096 45 0 0 0.0472,0.0472 l 2.26053,-0.78365 a 0.04578096,0.04578096 0 0 0 0.0367,-0.0115 l 3.13796,-3.13796 a 0.04578096,0.04578096 0 0 0 3e-5,-0.0647 z m -0.0323,0.0973 0.20834,0.20834 -3.07305,3.07306 -0.20835,-0.20834 z m 0.2273,0.2273 0.23715,0.23715 -3.07306,3.07306 -0.23715,-0.23715 z m 0.25626,0.25626 0.237,0.23701 -3.07305,3.07306 -0.23701,-0.23701 z m 0.25611,0.25611 0.237,0.237 -3.07306,3.07306 -0.237,-0.237 z m 0.25611,0.25611 0.237,0.237 -3.07306,3.07306 -0.237,-0.237 z m 0.25611,0.25611 0.1679,0.1679 -3.07306,3.07306 -0.1679,-0.1679 z m -4.37513,1.90049 1.39061,1.39061 -1.51417,0.52483 c 0.001,-0.003 0.002,-0.006 0.002,-0.0107 -2e-5,-0.0147 -0.004,-0.0139 -0.005,-0.0163 -0.002,-0.002 -0.003,-0.004 -0.005,-0.007 -0.003,-0.004 -0.007,-0.009 -0.012,-0.0141 -0.01,-0.0111 -0.0238,-0.0257 -0.0407,-0.0433 l 3e-5,-4e-5 c -0.0341,-0.0351 -0.0807,-0.0816 -0.13208,-0.13123 l -0.18615,-0.18006 a 0.02678712,0.02678712 0 0 0 -0.0202,-0.007 z m -0.28102,1.80243 c 0.0221,0.022 0.0422,0.0422 0.0589,0.0595 0.0136,0.014 0.0232,0.0244 0.0319,0.0339 -0.0139,0.005 -0.0297,0.0123 -0.0518,0.0207 -0.0515,0.0196 -0.12313,0.0451 -0.20177,0.0717 l -0.23503,0.0794 0.0827,-0.23723 0.087,-0.24937 0.15602,0.15093 c 0.0255,0.0247 0.0498,0.0486 0.072,0.0706 z m -0.05,-0.0432 c -0.0414,-0.041 -0.0869,-0.082 -0.11395,-0.10179 l -0.0655,-0.0481 -0.0759,0.2227 -0.0759,0.22264 0.22913,-0.0806 0.22912,-0.0806 -0.0877,-0.0941 c -0.0121,-0.0129 -0.0254,-0.0266 -0.0393,-0.0403 z" />
    <text
       xml:space="preserve"
       style="font-size:7.05556px;line-height:1.25;font-family:calibri;-inkscape-font-specification:calibri;stroke-width:0.688429"
       x="62.59293"
       y="123.26137"
       id="text34"><tspan
         sodipodi:role="line"
         id="tspan34"
         style="font-size:7.05556px;stroke-width:0.688429"
         x="62.59293"
         y="123.26137">Pepito de los palotes</tspan></text>
    <text
       xml:space="preserve"
       style="font-size:7.05556px;line-height:1.25;font-family:calibri;-inkscape-font-specification:calibri;stroke-width:0.264583"
       x="21.10836"
       y="123.07244"
       id="text35"><tspan
         sodipodi:role="line"
         id="tspan35"
         style="font-size:7.05556px;stroke-width:0.264583"
         x="21.10836"
         y="123.07244">37333542D</tspan></text>
    <path
       id="path35"
       style="color:#000000;fill:#000000;stroke-width:0.101726;stroke-linecap:round;stroke-linejoin:round;-inkscape-stroke:none"
       d="m 131.85871,118.47566 a 0.04578096,0.04578096 0 0 0 -0.0646,10e-5 l -3.13796,3.13796 a 0.04578096,0.04578096 0 0 0 -0.0115,0.0367 l -0.78364,2.26054 a 0.03846837,0.04578096 45 0 0 0.0472,0.0472 l 2.26053,-0.78365 a 0.04578096,0.04578096 0 0 0 0.0367,-0.0115 l 3.13796,-3.13796 a 0.04578096,0.04578096 0 0 0 3e-5,-0.0647 z m -0.0323,0.0973 0.20834,0.20834 -3.07305,3.07306 -0.20835,-0.20834 z m 0.2273,0.2273 0.23715,0.23715 -3.07306,3.07306 -0.23715,-0.23715 z m 0.25626,0.25626 0.237,0.23701 -3.07305,3.07306 -0.23701,-0.23701 z m 0.25611,0.25611 0.237,0.237 -3.07306,3.07306 -0.237,-0.237 z m 0.25611,0.25611 0.237,0.237 -3.07306,3.07306 -0.237,-0.237 z m 0.25611,0.25611 0.1679,0.1679 -3.07306,3.07306 -0.1679,-0.1679 z m -4.37513,1.90049 1.39061,1.39061 -1.51417,0.52483 c 0.001,-0.003 0.002,-0.006 0.002,-0.0107 -2e-5,-0.0147 -0.004,-0.0139 -0.005,-0.0163 -0.002,-0.002 -0.003,-0.004 -0.005,-0.007 -0.003,-0.004 -0.007,-0.009 -0.012,-0.0141 -0.01,-0.0111 -0.0238,-0.0257 -0.0407,-0.0433 l 3e-5,-4e-5 c -0.0341,-0.0351 -0.0807,-0.0816 -0.13208,-0.13123 l -0.18615,-0.18006 a 0.02678712,0.02678712 0 0 0 -0.0202,-0.007 z m -0.28102,1.80243 c 0.0221,0.022 0.0422,0.0422 0.0589,0.0595 0.0136,0.014 0.0232,0.0244 0.0319,0.0339 -0.0139,0.005 -0.0297,0.0123 -0.0518,0.0207 -0.0515,0.0196 -0.12313,0.0451 -0.20177,0.0717 l -0.23503,0.0794 0.0827,-0.23723 0.087,-0.24937 0.15602,0.15093 c 0.0255,0.0247 0.0498,0.0486 0.072,0.0706 z m -0.05,-0.0432 c -0.0414,-0.041 -0.0869,-0.082 -0.11395,-0.10179 l -0.0655,-0.0481 -0.0759,0.2227 -0.0759,0.22264 0.22913,-0.0806 0.22912,-0.0806 -0.0877,-0.0941 c -0.0121,-0.0129 -0.0254,-0.0266 -0.0393,-0.0403 z" />
    <text
       xml:space="preserve"
       style="font-size:7.05556px;line-height:1.25;font-family:calibri;-inkscape-font-specification:calibri;stroke-width:0.688429"
       x="62.59293"
       y="123.26137"
       id="text36"><tspan
         sodipodi:role="line"
         id="tspan36"
         style="font-size:7.05556px;stroke-width:0.688429"
         x="62.59293"
         y="123.26137">Pepito de los palotes</tspan></text>
    <text
       xml:space="preserve"
       style="font-size:7.05556px;line-height:1.25;font-family:calibri;-inkscape-font-specification:calibri;stroke-width:0.264583"
       x="21.10836"
       y="123.07244"
       id="text37"><tspan
         sodipodi:role="line"
         id="tspan37"
         style="font-size:7.05556px;stroke-width:0.264583"
         x="21.10836"
         y="123.07244">37333542D</tspan></text>
    <path
       id="path37"
       style="color:#000000;fill:#000000;stroke-width:0.101726;stroke-linecap:round;stroke-linejoin:round;-inkscape-stroke:none"
       d="m 131.85871,118.47566 a 0.04578096,0.04578096 0 0 0 -0.0646,10e-5 l -3.13796,3.13796 a 0.04578096,0.04578096 0 0 0 -0.0115,0.0367 l -0.78364,2.26054 a 0.03846837,0.04578096 45 0 0 0.0472,0.0472 l 2.26053,-0.78365 a 0.04578096,0.04578096 0 0 0 0.0367,-0.0115 l 3.13796,-3.13796 a 0.04578096,0.04578096 0 0 0 3e-5,-0.0647 z m -0.0323,0.0973 0.20834,0.20834 -3.07305,3.07306 -0.20835,-0.20834 z m 0.2273,0.2273 0.23715,0.23715 -3.07306,3.07306 -0.23715,-0.23715 z m 0.25626,0.25626 0.237,0.23701 -3.07305,3.07306 -0.23701,-0.23701 z m 0.25611,0.25611 0.237,0.237 -3.07306,3.07306 -0.237,-0.237 z m 0.25611,0.25611 0.237,0.237 -3.07306,3.07306 -0.237,-0.237 z m 0.25611,0.25611 0.1679,0.1679 -3.07306,3.07306 -0.1679,-0.1679 z m -4.37513,1.90049 1.39061,1.39061 -1.51417,0.52483 c 0.001,-0.003 0.002,-0.006 0.002,-0.0107 -2e-5,-0.0147 -0.004,-0.0139 -0.005,-0.0163 -0.002,-0.002 -0.003,-0.004 -0.005,-0.007 -0.003,-0.004 -0.007,-0.009 -0.012,-0.0141 -0.01,-0.0111 -0.0238,-0.0257 -0.0407,-0.0433 l 3e-5,-4e-5 c -0.0341,-0.0351 -0.0807,-0.0816 -0.13208,-0.13123 l -0.18615,-0.18006 a 0.02678712,0.02678712 0 0 0 -0.0202,-0.007 z m -0.28102,1.80243 c 0.0221,0.022 0.0422,0.0422 0.0589,0.0595 0.0136,0.014 0.0232,0.0244 0.0319,0.0339 -0.0139,0.005 -0.0297,0.0123 -0.0518,0.0207 -0.0515,0.0196 -0.12313,0.0451 -0.20177,0.0717 l -0.23503,0.0794 0.0827,-0.23723 0.087,-0.24937 0.15602,0.15093 c 0.0255,0.0247 0.0498,0.0486 0.072,0.0706 z m -0.05,-0.0432 c -0.0414,-0.041 -0.0869,-0.082 -0.11395,-0.10179 l -0.0655,-0.0481 -0.0759,0.2227 -0.0759,0.22264 0.22913,-0.0806 0.22912,-0.0806 -0.0877,-0.0941 c -0.0121,-0.0129 -0.0254,-0.0266 -0.0393,-0.0403 z" />
    <text
       xml:space="preserve"
       style="font-size:7.05556px;line-height:1.25;font-family:calibri;-inkscape-font-specification:calibri;stroke-width:0.688429"
       x="62.59293"
       y="133.84471"
       id="text38"><tspan
         sodipodi:role="line"
         id="tspan38"
         style="font-size:7.05556px;stroke-width:0.688429"
         x="62.59293"
         y="133.84471">Pepito de los palotes</tspan></text>
    <text
       xml:space="preserve"
       style="font-size:7.05556px;line-height:1.25;font-family:calibri;-inkscape-font-specification:calibri;stroke-width:0.264583"
       x="21.10836"
       y="133.65578"
       id="text39"><tspan
         sodipodi:role="line"
         id="tspan39"
         style="font-size:7.05556px;stroke-width:0.264583"
         x="21.10836"
         y="133.65578">37333542D</tspan></text>
    <path
       id="path39"
       style="color:#000000;fill:#000000;stroke-width:0.101726;stroke-linecap:round;stroke-linejoin:round;-inkscape-stroke:none"
       d="m 131.85871,129.059 a 0.04578096,0.04578096 0 0 0 -0.0646,1e-4 l -3.13796,3.13796 a 0.04578096,0.04578096 0 0 0 -0.0115,0.0367 l -0.78364,2.26054 a 0.03846837,0.04578096 45 0 0 0.0472,0.0472 l 2.26053,-0.78365 a 0.04578096,0.04578096 0 0 0 0.0367,-0.0115 l 3.13796,-3.13796 a 0.04578096,0.04578096 0 0 0 3e-5,-0.0647 z m -0.0323,0.0973 0.20834,0.20834 -3.07305,3.07306 -0.20835,-0.20834 z m 0.2273,0.2273 0.23715,0.23715 -3.07306,3.07306 -0.23715,-0.23715 z m 0.25626,0.25626 0.237,0.23701 -3.07305,3.07306 -0.23701,-0.23701 z m 0.25611,0.25611 0.237,0.237 -3.07306,3.07306 -0.237,-0.237 z m 0.25611,0.25611 0.237,0.237 -3.07306,3.07306 -0.237,-0.237 z m 0.25611,0.25611 0.1679,0.1679 -3.07306,3.07306 -0.1679,-0.1679 z m -4.37513,1.90049 1.39061,1.39061 -1.51417,0.52483 c 0.001,-0.003 0.002,-0.006 0.002,-0.0107 -2e-5,-0.0147 -0.004,-0.0139 -0.005,-0.0163 -0.002,-0.002 -0.003,-0.004 -0.005,-0.007 -0.003,-0.004 -0.007,-0.009 -0.012,-0.0141 -0.01,-0.0111 -0.0238,-0.0257 -0.0407,-0.0433 l 3e-5,-4e-5 c -0.0341,-0.0351 -0.0807,-0.0816 -0.13208,-0.13123 l -0.18615,-0.18006 a 0.02678712,0.02678712 0 0 0 -0.0202,-0.007 z m -0.28102,1.80243 c 0.0221,0.022 0.0422,0.0422 0.0589,0.0595 0.0136,0.014 0.0232,0.0244 0.0319,0.0339 -0.0139,0.005 -0.0297,0.0123 -0.0518,0.0207 -0.0515,0.0196 -0.12313,0.0451 -0.20177,0.0717 l -0.23503,0.0794 0.0827,-0.23723 0.087,-0.24937 0.15602,0.15093 c 0.0255,0.0247 0.0498,0.0486 0.072,0.0706 z m -0.05,-0.0432 c -0.0414,-0.041 -0.0869,-0.082 -0.11395,-0.10179 l -0.0655,-0.0481 -0.0759,0.2227 -0.0759,0.22264 0.22913,-0.0806 0.22912,-0.0806 -0.0877,-0.0941 c -0.0121,-0.0129 -0.0254,-0.0266 -0.0393,-0.0403 z" />
    <text
       xml:space="preserve"
       style="font-size:7.05556px;line-height:1.25;font-family:calibri;-inkscape-font-specification:calibri;stroke-width:0.688429"
       x="62.59293"
       y="133.84471"
       id="text40"><tspan
         sodipodi:role="line"
         id="tspan40"
         style="font-size:7.05556px;stroke-width:0.688429"
         x="62.59293"
         y="133.84471">Pepito de los palotes</tspan></text>
    <text
       xml:space="preserve"
       style="font-size:7.05556px;line-height:1.25;font-family:calibri;-inkscape-font-specification:calibri;stroke-width:0.264583"
       x="21.10836"
       y="133.65578"
       id="text41"><tspan
         sodipodi:role="line"
         id="tspan41"
         style="font-size:7.05556px;stroke-width:0.264583"
         x="21.10836"
         y="133.65578">37333542D</tspan></text>
    <path
       id="path41"
       style="color:#000000;fill:#000000;stroke-width:0.101726;stroke-linecap:round;stroke-linejoin:round;-inkscape-stroke:none"
       d="m 131.85871,129.059 a 0.04578096,0.04578096 0 0 0 -0.0646,1e-4 l -3.13796,3.13796 a 0.04578096,0.04578096 0 0 0 -0.0115,0.0367 l -0.78364,2.26054 a 0.03846837,0.04578096 45 0 0 0.0472,0.0472 l 2.26053,-0.78365 a 0.04578096,0.04578096 0 0 0 0.0367,-0.0115 l 3.13796,-3.13796 a 0.04578096,0.04578096 0 0 0 3e-5,-0.0647 z m -0.0323,0.0973 0.20834,0.20834 -3.07305,3.07306 -0.20835,-0.20834 z m 0.2273,0.2273 0.23715,0.23715 -3.07306,3.07306 -0.23715,-0.23715 z m 0.25626,0.25626 0.237,0.23701 -3.07305,3.07306 -0.23701,-0.23701 z m 0.25611,0.25611 0.237,0.237 -3.07306,3.07306 -0.237,-0.237 z m 0.25611,0.25611 0.237,0.237 -3.07306,3.07306 -0.237,-0.237 z m 0.25611,0.25611 0.1679,0.1679 -3.07306,3.07306 -0.1679,-0.1679 z m -4.37513,1.90049 1.39061,1.39061 -1.51417,0.52483 c 0.001,-0.003 0.002,-0.006 0.002,-0.0107 -2e-5,-0.0147 -0.004,-0.0139 -0.005,-0.0163 -0.002,-0.002 -0.003,-0.004 -0.005,-0.007 -0.003,-0.004 -0.007,-0.009 -0.012,-0.0141 -0.01,-0.0111 -0.0238,-0.0257 -0.0407,-0.0433 l 3e-5,-4e-5 c -0.0341,-0.0351 -0.0807,-0.0816 -0.13208,-0.13123 l -0.18615,-0.18006 a 0.02678712,0.02678712 0 0 0 -0.0202,-0.007 z m -0.28102,1.80243 c 0.0221,0.022 0.0422,0.0422 0.0589,0.0595 0.0136,0.014 0.0232,0.0244 0.0319,0.0339 -0.0139,0.005 -0.0297,0.0123 -0.0518,0.0207 -0.0515,0.0196 -0.12313,0.0451 -0.20177,0.0717 l -0.23503,0.0794 0.0827,-0.23723 0.087,-0.24937 0.15602,0.15093 c 0.0255,0.0247 0.0498,0.0486 0.072,0.0706 z m -0.05,-0.0432 c -0.0414,-0.041 -0.0869,-0.082 -0.11395,-0.10179 l -0.0655,-0.0481 -0.0759,0.2227 -0.0759,0.22264 0.22913,-0.0806 0.22912,-0.0806 -0.0877,-0.0941 c -0.0121,-0.0129 -0.0254,-0.0266 -0.0393,-0.0403 z" />
    <text
       xml:space="preserve"
       style="font-size:7.05556px;line-height:1.25;font-family:calibri;-inkscape-font-specification:calibri;stroke-width:0.688429"
       x="62.59293"
       y="144.42805"
       id="text42"><tspan
         sodipodi:role="line"
         id="tspan42"
         style="font-size:7.05556px;stroke-width:0.688429"
         x="62.59293"
         y="144.42805">Pepito de los palotes</tspan></text>
    <text
       xml:space="preserve"
       style="font-size:7.05556px;line-height:1.25;font-family:calibri;-inkscape-font-specification:calibri;stroke-width:0.264583"
       x="21.10836"
       y="144.23912"
       id="text43"><tspan
         sodipodi:role="line"
         id="tspan43"
         style="font-size:7.05556px;stroke-width:0.264583"
         x="21.10836"
         y="144.23912">37333542D</tspan></text>
    <path
       id="path43"
       style="color:#000000;fill:#000000;stroke-width:0.101726;stroke-linecap:round;stroke-linejoin:round;-inkscape-stroke:none"
       d="m 131.85871,139.64234 a 0.04578096,0.04578096 0 0 0 -0.0646,1e-4 l -3.13796,3.13796 a 0.04578096,0.04578096 0 0 0 -0.0115,0.0367 l -0.78364,2.26054 a 0.03846837,0.04578096 45 0 0 0.0472,0.0472 l 2.26053,-0.78365 a 0.04578096,0.04578096 0 0 0 0.0367,-0.0115 l 3.13796,-3.13796 a 0.04578096,0.04578096 0 0 0 3e-5,-0.0647 z m -0.0323,0.0973 0.20834,0.20834 -3.07305,3.07306 -0.20835,-0.20834 z m 0.2273,0.2273 0.23715,0.23715 -3.07306,3.07306 -0.23715,-0.23715 z m 0.25626,0.25626 0.237,0.23701 -3.07305,3.07306 -0.23701,-0.23701 z m 0.25611,0.25611 0.237,0.237 -3.07306,3.07306 -0.237,-0.237 z m 0.25611,0.25611 0.237,0.237 -3.07306,3.07306 -0.237,-0.237 z m 0.25611,0.25611 0.1679,0.1679 -3.07306,3.07306 -0.1679,-0.1679 z m -4.37513,1.90049 1.39061,1.39061 -1.51417,0.52483 c 0.001,-0.003 0.002,-0.006 0.002,-0.0107 -2e-5,-0.0147 -0.004,-0.0139 -0.005,-0.0163 -0.002,-0.002 -0.003,-0.004 -0.005,-0.007 -0.003,-0.004 -0.007,-0.009 -0.012,-0.0141 -0.01,-0.0111 -0.0238,-0.0257 -0.0407,-0.0433 l 3e-5,-4e-5 c -0.0341,-0.0351 -0.0807,-0.0816 -0.13208,-0.13123 l -0.18615,-0.18006 a 0.02678712,0.02678712 0 0 0 -0.0202,-0.007 z m -0.28102,1.80243 c 0.0221,0.022 0.0422,0.0422 0.0589,0.0595 0.0136,0.014 0.0232,0.0244 0.0319,0.0339 -0.0139,0.005 -0.0297,0.0123 -0.0518,0.0207 -0.0515,0.0196 -0.12313,0.0451 -0.20177,0.0717 l -0.23503,0.0794 0.0827,-0.23723 0.087,-0.24937 0.15602,0.15093 c 0.0255,0.0247 0.0498,0.0486 0.072,0.0706 z m -0.05,-0.0432 c -0.0414,-0.041 -0.0869,-0.082 -0.11395,-0.10179 l -0.0655,-0.0481 -0.0759,0.2227 -0.0759,0.22264 0.22913,-0.0806 0.22912,-0.0806 -0.0877,-0.0941 c -0.0121,-0.0129 -0.0254,-0.0266 -0.0393,-0.0403 z" />
    <text
       xml:space="preserve"
       style="font-size:7.05556px;line-height:1.25;font-family:calibri;-inkscape-font-specification:calibri;stroke-width:0.688429"
       x="62.59293"
       y="144.42805"
       id="text44"><tspan
         sodipodi:role="line"
         id="tspan44"
         style="font-size:7.05556px;stroke-width:0.688429"
         x="62.59293"
         y="144.42805">Pepito de los palotes</tspan></text>
    <text
       xml:space="preserve"
       style="font-size:7.05556px;line-height:1.25;font-family:calibri;-inkscape-font-specification:calibri;stroke-width:0.264583"
       x="21.10836"
       y="144.23912"
       id="text45"><tspan
         sodipodi:role="line"
         id="tspan45"
         style="font-size:7.05556px;stroke-width:0.264583"
         x="21.10836"
         y="144.23912">37333542D</tspan></text>
    <path
       id="path45"
       style="color:#000000;fill:#000000;stroke-width:0.101726;stroke-linecap:round;stroke-linejoin:round;-inkscape-stroke:none"
       d="m 131.85871,139.64234 a 0.04578096,0.04578096 0 0 0 -0.0646,1e-4 l -3.13796,3.13796 a 0.04578096,0.04578096 0 0 0 -0.0115,0.0367 l -0.78364,2.26054 a 0.03846837,0.04578096 45 0 0 0.0472,0.0472 l 2.26053,-0.78365 a 0.04578096,0.04578096 0 0 0 0.0367,-0.0115 l 3.13796,-3.13796 a 0.04578096,0.04578096 0 0 0 3e-5,-0.0647 z m -0.0323,0.0973 0.20834,0.20834 -3.07305,3.07306 -0.20835,-0.20834 z m 0.2273,0.2273 0.23715,0.23715 -3.07306,3.07306 -0.23715,-0.23715 z m 0.25626,0.25626 0.237,0.23701 -3.07305,3.07306 -0.23701,-0.23701 z m 0.25611,0.25611 0.237,0.237 -3.07306,3.07306 -0.237,-0.237 z m 0.25611,0.25611 0.237,0.237 -3.07306,3.07306 -0.237,-0.237 z m 0.25611,0.25611 0.1679,0.1679 -3.07306,3.07306 -0.1679,-0.1679 z m -4.37513,1.90049 1.39061,1.39061 -1.51417,0.52483 c 0.001,-0.003 0.002,-0.006 0.002,-0.0107 -2e-5,-0.0147 -0.004,-0.0139 -0.005,-0.0163 -0.002,-0.002 -0.003,-0.004 -0.005,-0.007 -0.003,-0.004 -0.007,-0.009 -0.012,-0.0141 -0.01,-0.0111 -0.0238,-0.0257 -0.0407,-0.0433 l 3e-5,-4e-5 c -0.0341,-0.0351 -0.0807,-0.0816 -0.13208,-0.13123 l -0.18615,-0.18006 a 0.02678712,0.02678712 0 0 0 -0.0202,-0.007 z m -0.28102,1.80243 c 0.0221,0.022 0.0422,0.0422 0.0589,0.0595 0.0136,0.014 0.0232,0.0244 0.0319,0.0339 -0.0139,0.005 -0.0297,0.0123 -0.0518,0.0207 -0.0515,0.0196 -0.12313,0.0451 -0.20177,0.0717 l -0.23503,0.0794 0.0827,-0.23723 0.087,-0.24937 0.15602,0.15093 c 0.0255,0.0247 0.0498,0.0486 0.072,0.0706 z m -0.05,-0.0432 c -0.0414,-0.041 -0.0869,-0.082 -0.11395,-0.10179 l -0.0655,-0.0481 -0.0759,0.2227 -0.0759,0.22264 0.22913,-0.0806 0.22912,-0.0806 -0.0877,-0.0941 c -0.0121,-0.0129 -0.0254,-0.0266 -0.0393,-0.0403 z" />
    <text
       xml:space="preserve"
       style="font-size:7.05556px;line-height:1.25;font-family:calibri;-inkscape-font-specification:calibri;stroke-width:0.688429"
       x="62.59293"
       y="155.0114"
       id="text46"><tspan
         sodipodi:role="line"
         id="tspan46"
         style="font-size:7.05556px;stroke-width:0.688429"
         x="62.59293"
         y="155.0114">Pepito de los palotes</tspan></text>
    <text
       xml:space="preserve"
       style="font-size:7.05556px;line-height:1.25;font-family:calibri;-inkscape-font-specification:calibri;stroke-width:0.264583"
       x="21.10836"
       y="154.82246"
       id="text47"><tspan
         sodipodi:role="line"
         id="tspan47"
         style="font-size:7.05556px;stroke-width:0.264583"
         x="21.10836"
         y="154.82246">37333542D</tspan></text>
    <path
       id="path47"
       style="color:#000000;fill:#000000;stroke-width:0.101726;stroke-linecap:round;stroke-linejoin:round;-inkscape-stroke:none"
       d="m 131.85871,150.22568 a 0.04578096,0.04578096 0 0 0 -0.0646,10e-5 l -3.13796,3.13796 a 0.04578096,0.04578096 0 0 0 -0.0115,0.0367 l -0.78364,2.26054 a 0.03846837,0.04578096 45 0 0 0.0472,0.0472 l 2.26053,-0.78365 a 0.04578096,0.04578096 0 0 0 0.0367,-0.0115 l 3.13796,-3.13796 a 0.04578096,0.04578096 0 0 0 3e-5,-0.0647 z m -0.0323,0.0973 0.20834,0.20834 -3.07305,3.07306 -0.20835,-0.20834 z m 0.2273,0.2273 0.23715,0.23715 -3.07306,3.07306 -0.23715,-0.23715 z m 0.25626,0.25626 0.237,0.23701 -3.07305,3.07306 -0.23701,-0.23701 z m 0.25611,0.25611 0.237,0.237 -3.07306,3.07306 -0.237,-0.237 z m 0.25611,0.25611 0.237,0.237 -3.07306,3.07306 -0.237,-0.237 z m 0.25611,0.25611 0.1679,0.1679 -3.07306,3.07306 -0.1679,-0.1679 z m -4.37513,1.90049 1.39061,1.39061 -1.51417,0.52483 c 0.001,-0.003 0.002,-0.006 0.002,-0.0107 -2e-5,-0.0147 -0.004,-0.0139 -0.005,-0.0163 -0.002,-0.002 -0.003,-0.004 -0.005,-0.007 -0.003,-0.004 -0.007,-0.009 -0.012,-0.0141 -0.01,-0.0111 -0.0238,-0.0257 -0.0407,-0.0433 l 3e-5,-4e-5 c -0.0341,-0.0351 -0.0807,-0.0816 -0.13208,-0.13123 l -0.18615,-0.18006 a 0.02678712,0.02678712 0 0 0 -0.0202,-0.007 z m -0.28102,1.80243 c 0.0221,0.022 0.0422,0.0422 0.0589,0.0595 0.0136,0.014 0.0232,0.0244 0.0319,0.0339 -0.0139,0.005 -0.0297,0.0123 -0.0518,0.0207 -0.0515,0.0196 -0.12313,0.0451 -0.20177,0.0717 l -0.23503,0.0794 0.0827,-0.23723 0.087,-0.24937 0.15602,0.15093 c 0.0255,0.0247 0.0498,0.0486 0.072,0.0706 z m -0.05,-0.0432 c -0.0414,-0.041 -0.0869,-0.082 -0.11395,-0.10179 l -0.0655,-0.0481 -0.0759,0.2227 -0.0759,0.22264 0.22913,-0.0806 0.22912,-0.0806 -0.0877,-0.0941 c -0.0121,-0.0129 -0.0254,-0.0266 -0.0393,-0.0403 z" />
    <text
       xml:space="preserve"
       style="font-size:7.05556px;line-height:1.25;font-family:calibri;-inkscape-font-specification:calibri;stroke-width:0.688429"
       x="62.59293"
       y="155.0114"
       id="text48"><tspan
         sodipodi:role="line"
         id="tspan48"
         style="font-size:7.05556px;stroke-width:0.688429"
         x="62.59293"
         y="155.0114">Pepito de los palotes</tspan></text>
    <text
       xml:space="preserve"
       style="font-size:7.05556px;line-height:1.25;font-family:calibri;-inkscape-font-specification:calibri;stroke-width:0.264583"
       x="21.10836"
       y="154.82246"
       id="text49"><tspan
         sodipodi:role="line"
         id="tspan49"
         style="font-size:7.05556px;stroke-width:0.264583"
         x="21.10836"
         y="154.82246">37333542D</tspan></text>
    <path
       id="path49"
       style="color:#000000;fill:#000000;stroke-width:0.101726;stroke-linecap:round;stroke-linejoin:round;-inkscape-stroke:none"
       d="m 131.85871,150.22568 a 0.04578096,0.04578096 0 0 0 -0.0646,10e-5 l -3.13796,3.13796 a 0.04578096,0.04578096 0 0 0 -0.0115,0.0367 l -0.78364,2.26054 a 0.03846837,0.04578096 45 0 0 0.0472,0.0472 l 2.26053,-0.78365 a 0.04578096,0.04578096 0 0 0 0.0367,-0.0115 l 3.13796,-3.13796 a 0.04578096,0.04578096 0 0 0 3e-5,-0.0647 z m -0.0323,0.0973 0.20834,0.20834 -3.07305,3.07306 -0.20835,-0.20834 z m 0.2273,0.2273 0.23715,0.23715 -3.07306,3.07306 -0.23715,-0.23715 z m 0.25626,0.25626 0.237,0.23701 -3.07305,3.07306 -0.23701,-0.23701 z m 0.25611,0.25611 0.237,0.237 -3.07306,3.07306 -0.237,-0.237 z m 0.25611,0.25611 0.237,0.237 -3.07306,3.07306 -0.237,-0.237 z m 0.25611,0.25611 0.1679,0.1679 -3.07306,3.07306 -0.1679,-0.1679 z m -4.37513,1.90049 1.39061,1.39061 -1.51417,0.52483 c 0.001,-0.003 0.002,-0.006 0.002,-0.0107 -2e-5,-0.0147 -0.004,-0.0139 -0.005,-0.0163 -0.002,-0.002 -0.003,-0.004 -0.005,-0.007 -0.003,-0.004 -0.007,-0.009 -0.012,-0.0141 -0.01,-0.0111 -0.0238,-0.0257 -0.0407,-0.0433 l 3e-5,-4e-5 c -0.0341,-0.0351 -0.0807,-0.0816 -0.13208,-0.13123 l -0.18615,-0.18006 a 0.02678712,0.02678712 0 0 0 -0.0202,-0.007 z m -0.28102,1.80243 c 0.0221,0.022 0.0422,0.0422 0.0589,0.0595 0.0136,0.014 0.0232,0.0244 0.0319,0.0339 -0.0139,0.005 -0.0297,0.0123 -0.0518,0.0207 -0.0515,0.0196 -0.12313,0.0451 -0.20177,0.0717 l -0.23503,0.0794 0.0827,-0.23723 0.087,-0.24937 0.15602,0.15093 c 0.0255,0.0247 0.0498,0.0486 0.072,0.0706 z m -0.05,-0.0432 c -0.0414,-0.041 -0.0869,-0.082 -0.11395,-0.10179 l -0.0655,-0.0481 -0.0759,0.2227 -0.0759,0.22264 0.22913,-0.0806 0.22912,-0.0806 -0.0877,-0.0941 c -0.0121,-0.0129 -0.0254,-0.0266 -0.0393,-0.0403 z" />
    <text
       xml:space="preserve"
       style="font-size:7.05556px;line-height:1.25;font-family:calibri;-inkscape-font-specification:calibri;stroke-width:0.688429"
       x="62.59293"
       y="165.59474"
       id="text50"><tspan
         sodipodi:role="line"
         id="tspan50"
         style="font-size:7.05556px;stroke-width:0.688429"
         x="62.59293"
         y="165.59474">Pepito de los palotes</tspan></text>
    <text
       xml:space="preserve"
       style="font-size:7.05556px;line-height:1.25;font-family:calibri;-inkscape-font-specification:calibri;stroke-width:0.264583"
       x="21.10836"
       y="165.40581"
       id="text51"><tspan
         sodipodi:role="line"
         id="tspan51"
         style="font-size:7.05556px;stroke-width:0.264583"
         x="21.10836"
         y="165.40581">37333542D</tspan></text>
    <path
       id="path51"
       style="color:#000000;fill:#000000;stroke-width:0.101726;stroke-linecap:round;stroke-linejoin:round;-inkscape-stroke:none"
       d="m 131.85871,160.80902 a 0.04578096,0.04578096 0 0 0 -0.0646,1e-4 l -3.13796,3.13796 a 0.04578096,0.04578096 0 0 0 -0.0115,0.0367 l -0.78364,2.26054 a 0.03846837,0.04578096 45 0 0 0.0472,0.0472 l 2.26053,-0.78365 a 0.04578096,0.04578096 0 0 0 0.0367,-0.0115 l 3.13796,-3.13796 a 0.04578096,0.04578096 0 0 0 3e-5,-0.0647 z m -0.0323,0.0973 0.20834,0.20834 -3.07305,3.07306 -0.20835,-0.20834 z m 0.2273,0.2273 0.23715,0.23715 -3.07306,3.07306 -0.23715,-0.23715 z m 0.25626,0.25626 0.237,0.23701 -3.07305,3.07306 -0.23701,-0.23701 z m 0.25611,0.25611 0.237,0.237 -3.07306,3.07306 -0.237,-0.237 z m 0.25611,0.25611 0.237,0.237 -3.07306,3.07306 -0.237,-0.237 z m 0.25611,0.25611 0.1679,0.1679 -3.07306,3.07306 -0.1679,-0.1679 z m -4.37513,1.90049 1.39061,1.39061 -1.51417,0.52483 c 0.001,-0.003 0.002,-0.006 0.002,-0.0107 -2e-5,-0.0147 -0.004,-0.0139 -0.005,-0.0163 -0.002,-0.002 -0.003,-0.004 -0.005,-0.007 -0.003,-0.004 -0.007,-0.009 -0.012,-0.0141 -0.01,-0.0111 -0.0238,-0.0257 -0.0407,-0.0433 l 3e-5,-4e-5 c -0.0341,-0.0351 -0.0807,-0.0816 -0.13208,-0.13123 l -0.18615,-0.18006 a 0.02678712,0.02678712 0 0 0 -0.0202,-0.007 z m -0.28102,1.80243 c 0.0221,0.022 0.0422,0.0422 0.0589,0.0595 0.0136,0.014 0.0232,0.0244 0.0319,0.0339 -0.0139,0.005 -0.0297,0.0123 -0.0518,0.0207 -0.0515,0.0196 -0.12313,0.0451 -0.20177,0.0717 l -0.23503,0.0794 0.0827,-0.23723 0.087,-0.24937 0.15602,0.15093 c 0.0255,0.0247 0.0498,0.0486 0.072,0.0706 z m -0.05,-0.0432 c -0.0414,-0.041 -0.0869,-0.082 -0.11395,-0.10179 l -0.0655,-0.0481 -0.0759,0.2227 -0.0759,0.22264 0.22913,-0.0806 0.22912,-0.0806 -0.0877,-0.0941 c -0.0121,-0.0129 -0.0254,-0.0266 -0.0393,-0.0403 z" />
    <text
       xml:space="preserve"
       style="font-size:7.05556px;line-height:1.25;font-family:calibri;-inkscape-font-specification:calibri;stroke-width:0.688429"
       x="62.59293"
       y="165.59474"
       id="text52"><tspan
         sodipodi:role="line"
         id="tspan52"
         style="font-size:7.05556px;stroke-width:0.688429"
         x="62.59293"
         y="165.59474">Pepito de los palotes</tspan></text>
    <text
       xml:space="preserve"
       style="font-size:7.05556px;line-height:1.25;font-family:calibri;-inkscape-font-specification:calibri;stroke-width:0.264583"
       x="21.10836"
       y="165.40581"
       id="text53"><tspan
         sodipodi:role="line"
         id="tspan53"
         style="font-size:7.05556px;stroke-width:0.264583"
         x="21.10836"
         y="165.40581">37333542D</tspan></text>
    <path
       id="path53"
       style="color:#000000;fill:#000000;stroke-width:0.101726;stroke-linecap:round;stroke-linejoin:round;-inkscape-stroke:none"
       d="m 131.85871,160.80902 a 0.04578096,0.04578096 0 0 0 -0.0646,1e-4 l -3.13796,3.13796 a 0.04578096,0.04578096 0 0 0 -0.0115,0.0367 l -0.78364,2.26054 a 0.03846837,0.04578096 45 0 0 0.0472,0.0472 l 2.26053,-0.78365 a 0.04578096,0.04578096 0 0 0 0.0367,-0.0115 l 3.13796,-3.13796 a 0.04578096,0.04578096 0 0 0 3e-5,-0.0647 z m -0.0323,0.0973 0.20834,0.20834 -3.07305,3.07306 -0.20835,-0.20834 z m 0.2273,0.2273 0.23715,0.23715 -3.07306,3.07306 -0.23715,-0.23715 z m 0.25626,0.25626 0.237,0.23701 -3.07305,3.07306 -0.23701,-0.23701 z m 0.25611,0.25611 0.237,0.237 -3.07306,3.07306 -0.237,-0.237 z m 0.25611,0.25611 0.237,0.237 -3.07306,3.07306 -0.237,-0.237 z m 0.25611,0.25611 0.1679,0.1679 -3.07306,3.07306 -0.1679,-0.1679 z m -4.37513,1.90049 1.39061,1.39061 -1.51417,0.52483 c 0.001,-0.003 0.002,-0.006 0.002,-0.0107 -2e-5,-0.0147 -0.004,-0.0139 -0.005,-0.0163 -0.002,-0.002 -0.003,-0.004 -0.005,-0.007 -0.003,-0.004 -0.007,-0.009 -0.012,-0.0141 -0.01,-0.0111 -0.0238,-0.0257 -0.0407,-0.0433 l 3e-5,-4e-5 c -0.0341,-0.0351 -0.0807,-0.0816 -0.13208,-0.13123 l -0.18615,-0.18006 a 0.02678712,0.02678712 0 0 0 -0.0202,-0.007 z m -0.28102,1.80243 c 0.0221,0.022 0.0422,0.0422 0.0589,0.0595 0.0136,0.014 0.0232,0.0244 0.0319,0.0339 -0.0139,0.005 -0.0297,0.0123 -0.0518,0.0207 -0.0515,0.0196 -0.12313,0.0451 -0.20177,0.0717 l -0.23503,0.0794 0.0827,-0.23723 0.087,-0.24937 0.15602,0.15093 c 0.0255,0.0247 0.0498,0.0486 0.072,0.0706 z m -0.05,-0.0432 c -0.0414,-0.041 -0.0869,-0.082 -0.11395,-0.10179 l -0.0655,-0.0481 -0.0759,0.2227 -0.0759,0.22264 0.22913,-0.0806 0.22912,-0.0806 -0.0877,-0.0941 c -0.0121,-0.0129 -0.0254,-0.0266 -0.0393,-0.0403 z" />
    <rect
       style="opacity:1;fill:none;stroke:#000000;stroke-width:0.892064;stroke-linecap:round;stroke-linejoin:round;stroke-dasharray:none"
       id="rect54"
       width="133.75481"
       height="143.37688"
       x="140.47836"
       y="48.395267" />
    <text
       xml:space="preserve"
       style="font-size:9.36987px;line-height:1.25;font-family:calibri;-inkscape-font-specification:calibri;stroke-width:0.878422"
       x="144.54686"
       y="58.472866"
       id="text54"><tspan
         sodipodi:role="line"
         id="tspan54"
         style="stroke-width:0.878422"
         x="144.54686"
         y="58.472866">Grupos</tspan></text>
  </g>
</svg>
